<?xml version="1.0" encoding="utf-8"?>
<!-- Generator: Adobe Illustrator 27.0.0, SVG Export Plug-In . SVG Version: 6.00 Build 0)  -->
<svg version="1.1" id="logo-datacredito" xmlns="http://www.w3.org/2000/svg" xmlns:xlink="http://www.w3.org/1999/xlink" x="0px"
	 y="0px" viewBox="0 0 192.3 42.2" style="enable-background:new 0 0 192.3 42.2;" xml:space="preserve">
<style type="text/css">
	.st0{fill:#0975BB;}
	.st1{fill:#80217B;}
	.st2{fill:#BF2284;}
	.st3{fill:#E82B85;}
	.st4{fill:#03559D;}
</style>
<path id="Trazado_3639" class="st0" d="M16.3,7.8h-3.8c-1.1,0-2-0.9-2-2V2c0-1.1,0.9-2,2-2h3.8c1.1,0,2,0.9,2,2v3.8
	C18.3,6.9,17.4,7.8,16.3,7.8"/>
<path id="Trazado_3640" class="st1" d="M6.5,16.3H2.3C1,16.3,0,15.3,0,14l0,0V9.8c0-1.3,1-2.3,2.3-2.3h4.2c1.3,0,2.3,1,2.3,2.3V14
	C8.8,15.3,7.8,16.3,6.5,16.3L6.5,16.3"/>
<path id="Trazado_3641" class="st2" d="M6.1,25.1H3.5c-0.8,0-1.4-0.6-1.4-1.4v-2.6c0-0.8,0.6-1.4,1.4-1.4l0,0h2.6
	c0.8,0,1.4,0.6,1.4,1.4l0,0v2.6C7.5,24.4,6.9,25.1,6.1,25.1L6.1,25.1"/>
<path id="Trazado_3642" class="st3" d="M13.1,33.3H10c-0.9,0-1.6-0.7-1.6-1.6l0,0v-3.1c0-0.9,0.7-1.6,1.6-1.6l0,0h3.1
	c0.9,0,1.6,0.7,1.6,1.6l0,0v3.1C14.7,32.5,14,33.3,13.1,33.3L13.1,33.3"/>
<path id="Trazado_3643" class="st3" d="M24.3,9.4h-2.1c-0.6,0-1.1-0.5-1.1-1.1V6.1C21,5.5,21.5,5,22.2,5l0,0h2.1
	c0.6,0,1.1,0.5,1.1,1.1l0,0v2.1C25.4,8.9,24.9,9.4,24.3,9.4"/>
<path id="Trazado_3644" class="st4" d="M20.4,11.1c-0.4,0-0.8,0.3-0.8,0.8V16c-2-1.8-5-1.6-6.8,0.4s-1.6,5,0.4,6.8
	c1.8,1.6,4.6,1.6,6.4,0v0.4c0,0.4,0.4,0.8,0.8,0.8s0.8-0.3,0.8-0.8V11.8C21.2,11.4,20.8,11.1,20.4,11.1 M16.4,22.8
	c-1.8,0-3.2-1.4-3.2-3.2s1.4-3.2,3.2-3.2s3.2,1.4,3.2,3.2C19.6,21.3,18.2,22.7,16.4,22.8L16.4,22.8 M39.5,15h-2v-2.1
	c0-0.4-0.4-0.8-0.8-0.8c-0.4,0-0.8,0.3-0.8,0.8V15h-2c-0.4,0-0.6,0.3-0.7,0.7c0,0.4,0.3,0.7,0.7,0.7h2v7.1c0,0.4,0.4,0.8,0.8,0.8
	c0.4,0,0.8-0.3,0.8-0.8v-7.1h2c0.4,0,0.7-0.4,0.7-0.7C40.1,15.4,39.8,15.1,39.5,15 M49.1,14.8c-0.4,0-0.8,0.3-0.8,0.8V16
	c-2-1.8-5-1.6-6.8,0.4s-1.6,5,0.4,6.8c1.8,1.6,4.6,1.6,6.4,0v0.4c0,0.4,0.4,0.8,0.8,0.8c0.4,0,0.8-0.3,0.8-0.8v-8
	C49.8,15.1,49.5,14.8,49.1,14.8 M45,22.8c-1.8,0-3.2-1.4-3.2-3.2s1.4-3.2,3.2-3.2s3.2,1.4,3.2,3.2C48.3,21.3,46.8,22.7,45,22.8
	C45.1,22.8,45,22.8,45,22.8 M59.5,20.6c-0.3,0-0.6,0.2-0.8,0.6c-0.5,1-1.6,1.6-2.8,1.6c-1.8,0-3.2-1.4-3.2-3.2
	c0-1.8,1.4-3.2,3.2-3.2l0,0c1,0,2,0.5,2.6,1.3c0.1,0.2,0.4,0.4,0.7,0.4c0.4,0,0.8-0.4,0.8-0.8c0-0.2-0.1-0.4-0.2-0.6
	c-0.9-1.2-2.4-1.9-3.9-2c-2.7,0-4.9,2.1-4.9,4.8s2.1,4.9,4.8,4.9h0.1c1.8,0,3.5-1,4.3-2.7c0-0.1,0.1-0.2,0.1-0.3
	C60.3,21,59.9,20.7,59.5,20.6 M65.5,14.7c-0.9,0-1.7,0.3-2.4,0.8c0-0.4-0.4-0.7-0.8-0.7c-0.4,0-0.8,0.3-0.8,0.8v8
	c0,0.4,0.4,0.8,0.8,0.8c0.4,0,0.8-0.3,0.8-0.8v-4.8c0-1.9,1.2-2.3,2.4-2.4c0.5,0,0.9-0.4,0.9-0.8C66.4,15.1,66,14.7,65.5,14.7
	 M71.1,14.7c-2.7,0-4.9,2.1-4.9,4.8s2.1,4.9,4.8,4.9h0.1c1.3,0,2.5-0.5,3.3-1.4c0.3-0.3,0.4-0.8,0.1-1.1c-0.2-0.2-0.4-0.3-0.6-0.3
	s-0.5,0.1-0.6,0.3c-0.6,0.6-1.4,0.9-2.2,0.8c-1.6,0-2.9-1.1-3.2-2.6h7.2c0.4-0.1,0.8-0.4,0.7-0.9C75.7,16.7,73.6,14.7,71.1,14.7
	 M68,18.5c0.6-1.7,2.4-2.6,4.1-2.1c1,0.3,1.7,1.1,2.1,2.1H68z M85.8,11.1c-0.4,0-0.8,0.3-0.8,0.8V16c-2-1.8-5-1.6-6.8,0.4
	s-1.6,5,0.4,6.8c1.8,1.6,4.6,1.6,6.4,0v0.4c0,0.4,0.4,0.8,0.8,0.8s0.8-0.3,0.8-0.8V11.8C86.5,11.4,86.2,11.1,85.8,11.1 M81.8,22.8
	c-1.8,0-3.2-1.4-3.2-3.2c0-1.8,1.4-3.2,3.2-3.2c1.8,0,3.2,1.4,3.2,3.2l0,0C85,21.3,83.6,22.7,81.8,22.8L81.8,22.8 M97.4,15h-2v-2.1
	c0-0.4-0.4-0.8-0.8-0.8s-0.8,0.3-0.8,0.8V15h-2c-0.4,0-0.6,0.3-0.7,0.7c0,0.4,0.3,0.7,0.7,0.7h2v7.1c0,0.4,0.4,0.8,0.8,0.8
	s0.8-0.3,0.8-0.8v-7.1h2c0.4,0,0.7-0.4,0.7-0.7C98,15.4,97.8,15.1,97.4,15 M102.8,14.7c-2.7,0-4.8,2.1-4.8,4.8s2.1,4.8,4.8,4.8
	c2.7,0,4.8-2.1,4.8-4.8l0,0C107.6,16.9,105.5,14.7,102.8,14.7 M102.8,22.8c-1.8,0-3.2-1.4-3.2-3.2c0-1.8,1.4-3.2,3.2-3.2
	c1.8,0,3.2,1.4,3.2,3.2C106,21.3,104.6,22.7,102.8,22.8L102.8,22.8 M68.8,13L68.8,13c0.1,0.3,0.4,0.5,0.7,0.6c0.1,0,0.3,0,0.4-0.1
	l2.8-1.2c0.3-0.1,0.6-0.4,0.6-0.7c0-0.1,0-0.3-0.1-0.4l0,0c-0.1-0.2-0.4-0.4-0.6-0.4c-0.1,0-0.3,0-0.4,0.1L69.3,12
	c-0.3,0.1-0.5,0.4-0.5,0.7C68.8,12.8,68.8,12.8,68.8,13C68.8,12.9,68.8,13,68.8,13 M88.9,11.7c-0.5,0-1,0.4-1,1s0.4,1,1,1
	c0.5,0,1-0.4,1-1C89.9,12.1,89.5,11.7,88.9,11.7 M88.9,14.8c-0.4,0-0.8,0.3-0.8,0.8v8c0,0.4,0.4,0.8,0.8,0.8s0.8-0.3,0.8-0.8v-8
	C89.7,15.1,89.4,14.8,88.9,14.8 M31.2,14.8c-0.4,0-0.8,0.3-0.8,0.8V16c-2-1.8-5-1.6-6.8,0.4s-1.6,5,0.4,6.8c1.8,1.6,4.6,1.6,6.4,0
	v0.4c0,0.4,0.4,0.8,0.8,0.8s0.8-0.3,0.8-0.8v-8C32,15.1,31.7,14.8,31.2,14.8 M27.2,22.8c-1.8,0-3.2-1.4-3.2-3.2
	c0-1.8,1.4-3.2,3.2-3.2s3.2,1.4,3.2,3.2l0,0C30.5,21.3,29,22.7,27.2,22.8C27.3,22.8,27.2,22.8,27.2,22.8"/>
<g>
	<path id="Trazado_3645" class="st1" d="M126.1,29.2c-0.7,0-1.4-0.2-2-0.5c-0.6-0.4-1.1-0.9-1.4-1.5c-0.3-0.7-0.5-1.4-0.5-2.2v-0.3
		c0-0.8,0.2-1.6,0.5-2.3c0.3-0.6,0.8-1.2,1.4-1.6s1.2-0.6,1.9-0.6c1,0,1.9,0.4,2.5,1.1c0.7,0.8,1,1.9,0.9,3v0.5h-6.2V25
		c0,0.9,0.3,1.8,0.8,2.5c0.5,0.6,1.3,1,2.1,1c0.5,0,0.9-0.1,1.4-0.3c0.4-0.2,0.8-0.5,1.1-0.9l0.6,0.5
		C128.5,28.7,127.3,29.2,126.1,29.2 M125.9,21c-0.7,0-1.4,0.3-1.8,0.8c-0.5,0.6-0.8,1.3-0.9,2.1h5.2v-0.1c0-0.7-0.2-1.5-0.7-2
		C127.2,21.2,126.6,21,125.9,21"/>
	<path id="Trazado_3646" class="st1" d="M132.1,20.5v1.4c0.3-0.5,0.7-0.9,1.2-1.2c0.5-0.3,1-0.4,1.6-0.4c1.2-0.1,2.3,0.6,2.6,1.7
		c0.3-0.5,0.7-1,1.2-1.3s1.1-0.4,1.7-0.4c1.9,0,2.8,1,2.9,3.1v5.8h-1v-5.7c0-0.6-0.1-1.2-0.5-1.7c-0.4-0.4-1-0.6-1.6-0.6
		s-1.3,0.2-1.8,0.7c-0.5,0.4-0.8,1-0.8,1.6v5.8h-1v-5.9c0-0.6-0.1-1.2-0.5-1.7c-0.4-0.4-1-0.6-1.6-0.6s-1.1,0.2-1.6,0.5
		c-0.5,0.4-0.8,0.9-1,1.5v6h-1v-8.7h1.2V20.5z"/>
	<path id="Trazado_3647" class="st1" d="M152.9,24.9c0.1,1.1-0.3,2.3-0.9,3.2c-0.6,0.8-1.5,1.2-2.4,1.2c-1.1,0.1-2.1-0.4-2.7-1.3
		v4.4h-1v-12h0.9v1.2c0.6-0.9,1.6-1.4,2.7-1.4c1,0,1.9,0.4,2.5,1.2c0.6,1,1,2.1,0.9,3.3V24.9z M151.9,24.7c0.1-0.9-0.2-1.8-0.7-2.6
		c-0.4-0.6-1.1-1-1.9-1c-1.1,0-2.1,0.6-2.5,1.7V27c0.2,0.5,0.6,0.9,1,1.1c0.5,0.3,1,0.4,1.5,0.4c0.8,0,1.5-0.3,1.9-1
		C151.7,26.7,151.9,25.7,151.9,24.7"/>
	<path id="Trazado_3648" class="st1" d="M159,21.2c-0.2,0-0.4-0.1-0.7-0.1c-0.6,0-1.1,0.2-1.5,0.5c-0.4,0.4-0.8,0.9-0.9,1.5v6h-1
		v-8.7h0.9v1.4c0.4-1,1.4-1.6,2.5-1.5c0.2,0,0.4,0,0.6,0.1L159,21.2z"/>
	<path id="Trazado_3649" class="st1" d="M163.8,29.2c-0.7,0-1.4-0.2-2-0.5c-0.6-0.4-1.1-0.9-1.4-1.5c-0.3-0.7-0.5-1.4-0.5-2.2v-0.3
		c0-0.8,0.2-1.6,0.5-2.3c0.3-0.6,0.8-1.2,1.4-1.6c0.6-0.4,1.2-0.6,1.9-0.6c1,0,1.9,0.4,2.5,1.1c0.7,0.8,1,1.9,0.9,3v0.5h-6.2V25
		c0,0.9,0.3,1.8,0.8,2.5c0.5,0.6,1.3,1,2.1,1c0.5,0,0.9-0.1,1.4-0.3c0.4-0.2,0.8-0.5,1.1-0.9l0.6,0.5
		C166.1,28.7,165,29.2,163.8,29.2 M163.6,21c-0.7,0-1.4,0.3-1.8,0.8c-0.5,0.6-0.8,1.3-0.9,2.1h5.2v-0.1c0-0.7-0.2-1.5-0.7-2
		C164.9,21.2,164.2,21,163.6,21"/>
	<path id="Trazado_3650" class="st1" d="M174.1,27c0-0.5-0.2-0.9-0.6-1.2c-0.5-0.3-1.1-0.6-1.7-0.7c-0.6-0.1-1.2-0.3-1.8-0.6
		c-0.4-0.2-0.7-0.4-1-0.8c-0.2-0.3-0.3-0.7-0.3-1.1c0-0.7,0.3-1.3,0.9-1.7c0.6-0.5,1.4-0.7,2.2-0.7s1.7,0.2,2.3,0.7s0.9,1.1,0.9,1.9
		h-1c0-0.5-0.2-1-0.6-1.3c-0.9-0.6-2.2-0.7-3.1-0.1c-0.4,0.2-0.6,0.7-0.6,1.1s0.2,0.8,0.5,1c0.5,0.3,1.1,0.5,1.7,0.7
		c0.7,0.1,1.3,0.3,1.9,0.6c0.4,0.2,0.7,0.5,0.9,0.8c0.6,1,0.3,2.2-0.6,2.9c-0.7,0.5-1.5,0.7-2.3,0.7c-0.9,0-1.8-0.2-2.5-0.7
		c-0.6-0.4-1-1.1-0.9-1.9h1c0,0.5,0.3,1,0.7,1.3c0.5,0.3,1.1,0.5,1.7,0.5c0.6,0,1.1-0.1,1.6-0.4C173.9,27.9,174.1,27.4,174.1,27"/>
	<path id="Trazado_3651" class="st1" d="M182.7,29.1c-0.1-0.4-0.2-0.8-0.2-1.2c-0.3,0.4-0.8,0.8-1.3,1s-1.1,0.4-1.7,0.4
		c-0.7,0-1.5-0.2-2-0.7c-0.5-0.4-0.8-1.1-0.8-1.8c0-0.8,0.4-1.6,1.1-2c0.9-0.5,1.9-0.8,3-0.7h1.7v-1c0-0.6-0.2-1.1-0.6-1.5
		c-0.5-0.4-1.1-0.6-1.7-0.5c-0.6,0-1.2,0.2-1.7,0.5c-0.4,0.3-0.7,0.7-0.7,1.2h-1c0-0.7,0.4-1.4,1-1.8c0.7-0.5,1.5-0.8,2.4-0.8
		c0.8,0,1.6,0.2,2.3,0.7c0.6,0.5,0.9,1.3,0.9,2V27c0,0.6,0.1,1.3,0.3,1.9V29L182.7,29.1z M179.7,28.4c0.6,0,1.2-0.2,1.7-0.5
		s0.9-0.7,1.1-1.2v-1.9h-1.7c-0.8,0-1.6,0.1-2.3,0.5c-0.5,0.3-0.8,0.8-0.8,1.4c0,0.5,0.2,0.9,0.5,1.2
		C178.7,28.3,179.2,28.4,179.7,28.4"/>
	<path id="Trazado_3652" class="st1" d="M191.3,27c0-0.5-0.2-0.9-0.6-1.2c-0.5-0.3-1.1-0.6-1.7-0.7c-0.6-0.1-1.2-0.3-1.8-0.6
		c-0.4-0.2-0.7-0.4-1-0.8c-0.2-0.3-0.3-0.7-0.3-1.1c0-0.7,0.3-1.3,0.9-1.7c0.6-0.5,1.4-0.7,2.2-0.7s1.7,0.2,2.3,0.7s0.9,1.1,0.9,1.9
		h-1c0-0.5-0.2-1-0.6-1.3c-0.9-0.6-2.2-0.7-3.1-0.1c-0.4,0.2-0.6,0.7-0.6,1.1s0.2,0.8,0.5,1c0.5,0.3,1.1,0.5,1.7,0.7
		c0.7,0.1,1.3,0.3,1.9,0.6c0.4,0.2,0.7,0.5,0.9,0.8c0.6,1,0.3,2.2-0.6,2.9c-0.7,0.5-1.5,0.7-2.3,0.7c-0.9,0-1.8-0.2-2.5-0.7
		c-0.6-0.4-1-1.1-0.9-1.9h1c0,0.5,0.3,1,0.7,1.3c0.5,0.3,1.1,0.5,1.7,0.5c0.6,0,1.1-0.1,1.6-0.4C191.1,27.9,191.3,27.4,191.3,27"/>
</g>
<path id="Trazado_3653" class="st4" d="M66.7,28.1c0.5,0,0.9-0.4,0.9-0.9s-0.4-0.9-0.9-0.9s-0.9,0.4-0.9,0.9
	C65.8,27.7,66.2,28.1,66.7,28.1L66.7,28.1"/>
<path id="Trazado_3654" class="st4" d="M32.2,38.2c-0.1,0.2-0.4,0.3-0.6,0.3s-0.3,0-0.4-0.1c-0.2-0.2-0.3-0.4-0.3-0.7
	c0-0.1,0-0.3,0.1-0.4l2.2-3.5L31,30.3c-0.1-0.1-0.1-0.2-0.1-0.4c0-0.3,0.1-0.5,0.4-0.7c0.4-0.2,0.8-0.1,1.1,0.2l1.8,2.8l1.8-2.8
	c0.2-0.3,0.7-0.4,1.1-0.2c0.2,0.1,0.4,0.4,0.4,0.7c0,0.1,0,0.3-0.1,0.4l-2.2,3.5l2.2,3.5c0.1,0.1,0.1,0.2,0.1,0.4
	c0,0.3-0.1,0.5-0.3,0.7c-0.1,0.1-0.3,0.1-0.4,0.1c-0.3,0-0.5-0.1-0.6-0.3L34,35.4L32.2,38.2z"/>
<path id="Trazado_3655" class="st4" d="M40,30.4c1.9-1.7,4.9-1.6,6.7,0.4c1.7,1.9,1.6,4.9-0.4,6.7c-1.8,1.6-4.5,1.6-6.3,0v4
	c0,0.4-0.4,0.7-0.8,0.7c-0.4,0-0.7-0.3-0.8-0.7V30c0-0.4,0.4-0.7,0.8-0.7c0.4,0,0.8,0.3,0.8,0.7V30.4z M43.2,30.8
	c-1.7,0-3.1,1.4-3.1,3.2c0,1.7,1.4,3.1,3.2,3.1c1.7,0,3.1-1.4,3.1-3.1C46.4,32.2,45,30.8,43.2,30.8L43.2,30.8"/>
<path id="Trazado_3656" class="st4" d="M61.3,33.1v4.7c0,0.4-0.4,0.7-0.8,0.7c-0.4,0-0.8-0.3-0.8-0.7V30c0-0.4,0.4-0.7,0.8-0.7
	c0.4,0,0.7,0.3,0.8,0.7c0.7-0.5,1.5-0.8,2.4-0.8c0.4,0,0.8,0.3,0.9,0.8c0,0.5-0.4,0.8-0.9,0.8C62.4,30.8,61.3,31.2,61.3,33.1"/>
<path id="Trazado_3657" class="st4" d="M66.7,29.3c-0.4,0-0.8,0.3-0.8,0.7v7.8c0,0.4,0.4,0.7,0.8,0.7s0.7-0.3,0.8-0.7V30
	C67.5,29.6,67.1,29.3,66.7,29.3"/>
<path id="Trazado_3658" class="st4" d="M76.6,30c0-0.4,0.4-0.7,0.8-0.7s0.7,0.3,0.8,0.7v7.8c0,0.4-0.4,0.7-0.8,0.7s-0.8-0.3-0.8-0.7
	v-0.4C74.7,39.1,71.7,39,70,37c-1.7-1.9-1.6-4.9,0.4-6.7c1.8-1.6,4.5-1.6,6.3,0V30H76.6z M73.5,37c1.7,0,3.1-1.4,3.1-3.2
	c0-1.7-1.4-3.1-3.2-3.1c-1.7,0-3.1,1.4-3.1,3.1C70.3,35.6,71.7,37,73.5,37C73.4,37,73.5,37,73.5,37"/>
<path id="Trazado_3659" class="st4" d="M86.1,33.1c0-1.3-1.1-2.4-2.4-2.4c-1.2-0.2-2.3,0.6-2.4,1.8c0,0.2,0,0.4,0,0.5v4.7
	c0,0.4-0.4,0.7-0.8,0.7s-0.8-0.3-0.8-0.7V30c0-0.4,0.4-0.7,0.8-0.7s0.7,0.3,0.8,0.7c1.8-1.3,4.3-0.9,5.6,0.9
	c0.5,0.6,0.7,1.3,0.8,2.1v4.9c0,0.4-0.4,0.7-0.8,0.7s-0.8-0.3-0.8-0.7L86.1,33.1z"/>
<path id="Trazado_3660" class="st4" d="M30,33.6c-0.1-2.6-2.4-4.6-5-4.4s-4.6,2.4-4.4,5c0.1,2.5,2.2,4.5,4.7,4.4
	c1.2,0,2.4-0.5,3.3-1.3c0.3-0.3,0.4-0.8,0.1-1.1c-0.1-0.2-0.4-0.3-0.6-0.3s-0.5,0.1-0.6,0.3c-0.6,0.6-1.3,0.9-2.1,0.8
	c-1.5,0-2.9-1.1-3.1-2.6h7.1l0,0l0,0l0,0h0.1C29.8,34.3,30,34,30,33.6 M25.3,30.7c1.4,0,2.6,0.9,3,2.2h-6
	C22.7,31.6,24,30.7,25.3,30.7"/>
<path id="Trazado_3661" class="st4" d="M58.4,33.6c-0.1-2.6-2.4-4.6-5-4.4c-2.6,0.1-4.6,2.4-4.4,5c0.1,2.5,2.2,4.5,4.7,4.4
	c1.2,0,2.4-0.5,3.3-1.3c0.3-0.3,0.4-0.8,0.1-1.1c-0.1-0.2-0.4-0.3-0.6-0.3c-0.2,0-0.5,0.1-0.6,0.3c-0.6,0.6-1.3,0.9-2.1,0.8
	c-1.5,0-2.9-1.1-3.1-2.6h7l0,0l0,0c0,0,0,0,0.1,0l0,0C58.2,34.4,58.4,34,58.4,33.6 M53.7,30.7c1.4,0,2.6,0.9,3,2.2h-6
	C51.1,31.6,52.4,30.7,53.7,30.7"/>
<rect x="114.4" y="11.5" class="st1" width="1" height="29.7"/>
</svg>
